<svg width="1041" height="626" viewBox="0 0 1041 626" fill="none" xmlns="http://www.w3.org/2000/svg">
    <path fill-rule="evenodd" clip-rule="evenodd" d="M446.122 470.061C617.721 552.832 745.886 704.257 794.143 882.304L930.608 827.57C805.626 423.533 370.545 181.087 -41.7626 283.603C-454.07 386.12 -688.645 797.561 -563.668 1201.6C-438.69 1605.63 -4.24163 1849.4 408.703 1745.56C435.883 1739.12 462.311 1730.69 487.336 1721.58L444.588 1582.04C125.668 1708.42 -248.537 1557.24 -392.869 1243.25C-537.205 929.258 -396.567 573.514 -77.6476 447.131C89.3041 382.665 280.103 389.981 446.122 470.061Z" fill="#5FCDCD" />
    <path fill-rule="evenodd" clip-rule="evenodd" d="M798.085 881.344C707.611 548.829 360.148 340.195 19.9951 414.115C-320.157 488.034 -521.594 815.978 -431.116 1148.49C-340.642 1481.01 6.81695 1689.64 346.97 1615.72C381.868 1607.94 414.601 1597.46 446.573 1584.98L401.871 1433.75C168.437 1541.09 -120.669 1441.04 -240.664 1209.17C-360.661 977.314 -269.743 702.748 -34.9065 596.084C199.935 489.42 487.638 588.803 607.634 820.664C627.593 858.195 642.817 898.365 650.502 939.822L798.085 881.344Z" fill="#41B4B4" />
</svg>